<?xml version="1.0" encoding="UTF-8" standalone="no"?>
<!-- Created with Inkscape (http://www.inkscape.org/) -->

<svg
   xmlns:dc="http://purl.org/dc/elements/1.1/"
   xmlns:cc="http://creativecommons.org/ns#"
   xmlns:rdf="http://www.w3.org/1999/02/22-rdf-syntax-ns#"
   xmlns:svg="http://www.w3.org/2000/svg"
   xmlns="http://www.w3.org/2000/svg"
   xmlns:xlink="http://www.w3.org/1999/xlink"
   xmlns:sodipodi="http://sodipodi.sourceforge.net/DTD/sodipodi-0.dtd"
   xmlns:inkscape="http://www.inkscape.org/namespaces/inkscape"
   width="50.806435mm"
   height="48.549976mm"
   viewBox="0 0 180.0228 172.02747"
   id="svg2"
   version="1.1"
   inkscape:version="0.91 r13725"
   sodipodi:docname="bar.svg">
  <defs
     id="defs4">
    <linearGradient
       id="linearGradient4318"
       inkscape:collect="always">
      <stop
         id="stop4320"
         offset="0"
         style="stop-color:#9955ff;stop-opacity:1" />
      <stop
         id="stop4322"
         offset="1"
         style="stop-color:#ff55dd;stop-opacity:1" />
    </linearGradient>
    <linearGradient
       id="linearGradient4312"
       inkscape:collect="always">
      <stop
         id="stop4314"
         offset="0"
         style="stop-color:#9955ff;stop-opacity:1" />
      <stop
         id="stop4316"
         offset="1"
         style="stop-color:#ff55dd;stop-opacity:1" />
    </linearGradient>
    <linearGradient
       inkscape:collect="always"
       id="linearGradient4302">
      <stop
         style="stop-color:#9955ff;stop-opacity:1"
         offset="0"
         id="stop4304" />
      <stop
         style="stop-color:#ff55dd;stop-opacity:1"
         offset="1"
         id="stop4306" />
    </linearGradient>
    <linearGradient
       inkscape:collect="always"
       xlink:href="#linearGradient4318"
       id="linearGradient4300"
       x1="366.40005"
       y1="656.67542"
       x2="366.40005"
       y2="533.24304"
       gradientUnits="userSpaceOnUse" />
    <linearGradient
       inkscape:collect="always"
       xlink:href="#linearGradient4302"
       id="linearGradient4308"
       x1="366.40005"
       y1="656.67542"
       x2="366.40005"
       y2="533.24304"
       gradientUnits="userSpaceOnUse" />
    <linearGradient
       inkscape:collect="always"
       xlink:href="#linearGradient4312"
       id="linearGradient4310"
       x1="366.40005"
       y1="656.67542"
       x2="366.40005"
       y2="533.24304"
       gradientUnits="userSpaceOnUse"
       gradientTransform="translate(0,0.66006601)" />
  </defs>
  <sodipodi:namedview
     id="base"
     pagecolor="#ffffff"
     bordercolor="#666666"
     borderopacity="1.0"
     inkscape:pageopacity="0.0"
     inkscape:pageshadow="2"
     inkscape:zoom="1.515"
     inkscape:cx="-192.09481"
     inkscape:cy="91.612188"
     inkscape:document-units="px"
     inkscape:current-layer="layer1"
     showgrid="false"
     fit-margin-top="0"
     fit-margin-left="0"
     fit-margin-right="0"
     fit-margin-bottom="0"
     inkscape:window-width="1920"
     inkscape:window-height="1017"
     inkscape:window-x="-4"
     inkscape:window-y="-4"
     inkscape:window-maximized="1"
     showguides="false">
    <inkscape:grid
       type="xygrid"
       id="grid4163" />
    <sodipodi:guide
       position="-479.20794,375.57754"
       orientation="-0.70710678,0.70710678"
       id="guide4280" />
  </sodipodi:namedview>
  <metadata
     id="metadata7">
    <rdf:RDF>
      <cc:Work
         rdf:about="">
        <dc:format>image/svg+xml</dc:format>
        <dc:type
           rdf:resource="http://purl.org/dc/dcmitype/StillImage" />
        <dc:title />
      </cc:Work>
    </rdf:RDF>
  </metadata>
  <g
     inkscape:label="Camada 1"
     inkscape:groupmode="layer"
     id="layer1"
     transform="translate(-278.61127,-505.77006)">
    <path
       style="opacity:1;fill:url(#linearGradient4300);fill-opacity:1;stroke:#cccccc;stroke-width:2;stroke-linecap:round;stroke-linejoin:round;stroke-miterlimit:3.4000001;stroke-dasharray:none;stroke-dashoffset:0;stroke-opacity:1"
       d="m 310.95452,566.24634 116.83169,0 c 4.75379,0 8.58086,3.82706 8.58086,8.58086 l 0,44.22442 c 0,4.75379 -3.82707,8.58086 -8.58086,8.58086 l -116.83169,0 c -4.7538,0 -8.58086,-3.82707 -8.58086,-8.58086 l 0,-44.22442 c 0,-4.7538 3.82706,-8.58086 8.58086,-8.58086 z"
       id="rect4274" />
    <g
       transform="scale(1.0404497,0.96112287)"
       style="font-style:normal;font-variant:normal;font-weight:normal;font-stretch:condensed;font-size:73.67980194px;line-height:125%;font-family:Impact;-inkscape-font-specification:'Impact Condensed';letter-spacing:0px;word-spacing:0px;fill:#dbdee3;fill-opacity:1;stroke:none;stroke-width:1px;stroke-linecap:butt;stroke-linejoin:miter;stroke-opacity:1"
       id="text4276">
      <path
         d="m 299.3828,592.02711 15.11012,0 q 7.15931,0 10.82891,1.11527 3.70558,1.11527 5.9721,4.53304 2.26651,3.38179 2.26651,10.93684 0,5.10866 -1.61894,7.12334 -1.58296,2.01469 -6.29588,3.09398 5.25257,1.18722 7.12334,3.95741 1.87078,2.73421 1.87078,8.41849 l 0,5.39647 q 0,5.90014 -1.36711,8.74228 -1.33113,2.84215 -4.2812,3.88546 -2.95007,1.04332 -12.08809,1.04332 l -17.52054,0 0,-58.2459 z m 15.14609,9.96548 0,12.95153 q 0.97137,-0.036 1.51102,-0.036 2.23054,0 2.84214,-1.07929 0.6116,-1.11527 0.6116,-6.29588 0,-2.73421 -0.50367,-3.81351 -0.50367,-1.11527 -1.33113,-1.40308 -0.79149,-0.28781 -3.12996,-0.32379 z m 0,22.0176 0,16.29734 q 3.20191,-0.10793 4.06534,-1.00734 0.89942,-0.89941 0.89942,-4.42511 l 0,-5.43244 q 0,-3.74156 -0.79149,-4.53304 -0.79148,-0.79148 -4.17327,-0.89941 z"
         style=""
         id="path4164" />
      <path
         d="m 366.26305,592.02711 8.67033,58.2459 -15.50586,0 -0.7555,-10.46915 -5.43245,0 -0.89941,10.46915 -15.68574,0 7.69897,-58.2459 21.90966,0 z m -8.02275,37.4515 q -1.15125,-9.89353 -2.30249,-24.42802 -2.3025,16.69308 -2.87812,24.42802 l 5.18061,0 z"
         style=""
         id="path4166" />
      <path
         d="m 377.52369,592.02711 10.72098,0 q 10.72099,0 14.49852,0.82746 3.8135,0.82746 6.18795,4.24522 2.41042,3.38179 2.41042,10.82892 0,6.79955 -1.69089,9.13802 -1.69089,2.33847 -6.65565,2.80617 4.49706,1.11527 6.04405,2.98604 1.54699,1.87078 1.90675,3.45374 0.39574,1.54699 0.39574,8.59838 l 0,15.36195 -14.06679,0 0,-19.35534 q 0,-4.67694 -0.75551,-5.79221 -0.71953,-1.11527 -3.84948,-1.11527 l 0,26.26282 -15.14609,0 0,-58.2459 z m 15.14609,9.96548 0,12.95153 q 2.55433,0 3.56167,-0.68355 1.04332,-0.71953 1.04332,-4.56901 l 0,-3.20191 q 0,-2.77019 -1.00734,-3.63362 -0.97137,-0.86344 -3.59765,-0.86344 z"
         style=""
         id="path4168" />
    </g>
    <path
       style="opacity:1;fill:url(#linearGradient4308);fill-opacity:1;stroke:#cccccc;stroke-width:1;stroke-linecap:round;stroke-linejoin:round;stroke-miterlimit:3.4000001;stroke-dasharray:none;stroke-dashoffset:0;stroke-opacity:1"
       d="m 338.50124,532.09357 59.65072,0 c 2.42714,0 4.38112,1.95398 4.38112,4.38112 l 0,22.57965 c 0,2.42714 -1.95398,4.38112 -4.38112,4.38112 l -59.65072,0 c -2.42714,0 -4.38112,-1.95398 -4.38112,-4.38112 l 0,-22.57965 c 0,-2.42714 1.95398,-4.38112 4.38112,-4.38112 z"
       id="rect4282" />
    <g
       transform="scale(1.0404497,0.96112287)"
       style="font-style:normal;font-variant:normal;font-weight:normal;font-stretch:condensed;font-size:37.6186676px;line-height:125%;font-family:Impact;-inkscape-font-specification:'Impact Condensed';letter-spacing:0px;word-spacing:0px;fill:#dbdee3;fill-opacity:1;stroke:none;stroke-width:1;stroke-linecap:butt;stroke-linejoin:miter;stroke-miterlimit:3.4000001;stroke-dasharray:none;stroke-opacity:1"
       id="text4284">
      <path
         d="m 325.60539,555.08515 7.71477,0 q 3.65533,0 5.52891,0.56942 1.89196,0.56942 3.04917,2.31443 1.15722,1.72664 1.15722,5.58402 0,2.60832 -0.82658,3.63696 -0.80822,1.02864 -3.21449,1.57969 2.6818,0.60616 3.63696,2.02053 0.95516,1.39601 0.95516,4.29823 l 0,2.75527 q 0,3.01244 -0.698,4.46355 -0.67963,1.45111 -2.18585,1.98379 -1.50622,0.53269 -6.17181,0.53269 l -8.94546,0 0,-29.73858 z m 7.73314,5.08807 0,6.61265 q 0.49595,-0.0184 0.77147,-0.0184 1.13885,0 1.45111,-0.55105 0.31227,-0.56942 0.31227,-3.21449 0,-1.396 -0.25716,-1.94706 -0.25716,-0.56942 -0.67963,-0.71637 -0.40411,-0.14694 -1.59806,-0.16531 z m 0,11.24151 0,8.32093 q 1.63479,-0.0551 2.07564,-0.51432 0.45921,-0.45921 0.45921,-2.25932 l 0,-2.77365 q 0,-1.91032 -0.40411,-2.31443 -0.40411,-0.4041 -2.13074,-0.45921 z"
         style=""
         id="path4171" />
      <path
         d="m 359.75242,555.08515 4.4268,29.73858 -7.91682,0 -0.38574,-5.34523 -2.77364,0 -0.45921,5.34523 -8.00866,0 3.93085,-29.73858 11.18642,0 z m -4.09618,19.12159 q -0.58779,-5.05133 -1.17558,-12.4722 -1.17558,8.52298 -1.46948,12.4722 l 2.64506,0 z"
         style=""
         id="path4173" />
      <path
         d="m 365.50175,555.08515 5.47381,0 q 5.47381,0 7.40251,0.42247 1.94706,0.42248 3.15938,2.16748 1.23069,1.72664 1.23069,5.52892 0,3.47164 -0.86332,4.66559 -0.86332,1.19396 -3.39817,1.43275 2.29606,0.56942 3.0859,1.52458 0.78985,0.95516 0.97353,1.76338 0.20206,0.78984 0.20206,4.39007 l 0,7.84334 -7.18208,0 0,-9.88225 q 0,-2.3879 -0.38574,-2.95732 -0.36737,-0.56943 -1.96543,-0.56943 l 0,13.409 -7.73314,0 0,-29.73858 z m 7.73314,5.08807 0,6.61265 q 1.30416,0 1.81848,-0.349 0.53269,-0.36737 0.53269,-2.3328 l 0,-1.63479 q 0,-1.41438 -0.51432,-1.85522 -0.49595,-0.44084 -1.83685,-0.44084 z"
         style=""
         id="path4175" />
    </g>
    <path
       style="opacity:1;fill:url(#linearGradient4310);fill-opacity:1;stroke:#cccccc;stroke-width:1;stroke-linecap:round;stroke-linejoin:round;stroke-miterlimit:3.4000001;stroke-dasharray:none;stroke-dashoffset:0;stroke-opacity:1"
       d="m 338.50124,629.78336 59.65072,0 c 2.42714,0 4.38112,1.95398 4.38112,4.38113 l 0,22.57964 c 0,2.42715 -1.95398,4.38113 -4.38112,4.38113 l -59.65072,0 c -2.42714,0 -4.38112,-1.95398 -4.38112,-4.38113 l 0,-22.57964 c 0,-2.42715 1.95398,-4.38113 4.38112,-4.38113 z"
       id="rect4288"
       inkscape:connector-curvature="0" />
    <g
       transform="matrix(1.0404497,0,0,0.96112287,0,0.66006601)"
       style="font-style:normal;font-variant:normal;font-weight:normal;font-stretch:condensed;font-size:37.6186676px;line-height:125%;font-family:Impact;-inkscape-font-specification:'Impact Condensed';letter-spacing:0px;word-spacing:0px;fill:#dbdee3;fill-opacity:1;stroke:none;stroke-width:1;stroke-linecap:butt;stroke-linejoin:miter;stroke-miterlimit:3.4000001;stroke-dasharray:none;stroke-opacity:1"
       id="text4290">
      <path
         d="m 325.60539,656.03967 7.71477,0 q 3.65533,0 5.52891,0.56943 1.89196,0.56942 3.04917,2.31443 1.15722,1.72663 1.15722,5.58402 0,2.60832 -0.82658,3.63696 -0.80822,1.02863 -3.21449,1.57969 2.6818,0.60616 3.63696,2.02053 0.95516,1.39601 0.95516,4.29823 l 0,2.75527 q 0,3.01244 -0.698,4.46355 -0.67963,1.45111 -2.18585,1.98379 -1.50622,0.53269 -6.17181,0.53269 l -8.94546,0 0,-29.73859 z m 7.73314,5.08808 0,6.61265 q 0.49595,-0.0184 0.77147,-0.0184 1.13885,0 1.45111,-0.55105 0.31227,-0.56942 0.31227,-3.21449 0,-1.396 -0.25716,-1.94706 -0.25716,-0.56942 -0.67963,-0.71637 -0.40411,-0.14695 -1.59806,-0.16531 z m 0,11.24151 0,8.32093 q 1.63479,-0.0551 2.07564,-0.51432 0.45921,-0.45921 0.45921,-2.25932 l 0,-2.77365 q 0,-1.91032 -0.40411,-2.31443 -0.40411,-0.4041 -2.13074,-0.45921 z"
         id="path4157"
         inkscape:connector-curvature="0" />
      <path
         d="m 359.75242,656.03967 4.4268,29.73859 -7.91682,0 -0.38574,-5.34523 -2.77364,0 -0.45921,5.34523 -8.00866,0 3.93085,-29.73859 11.18642,0 z m -4.09618,19.1216 q -0.58779,-5.05133 -1.17558,-12.4722 -1.17558,8.52298 -1.46948,12.4722 l 2.64506,0 z"
         id="path4159"
         inkscape:connector-curvature="0" />
      <path
         d="m 365.50175,656.03967 5.47381,0 q 5.47381,0 7.40251,0.42248 1.94706,0.42247 3.15938,2.16748 1.23069,1.72664 1.23069,5.52892 0,3.47164 -0.86332,4.66559 -0.86332,1.19395 -3.39817,1.43275 2.29606,0.56942 3.0859,1.52458 0.78985,0.95516 0.97353,1.76337 0.20206,0.78985 0.20206,4.39007 l 0,7.84335 -7.18208,0 0,-9.88225 q 0,-2.3879 -0.38574,-2.95733 -0.36737,-0.56942 -1.96543,-0.56942 l 0,13.409 -7.73314,0 0,-29.73859 z m 7.73314,5.08808 0,6.61265 q 1.30416,0 1.81848,-0.349 0.53269,-0.36737 0.53269,-2.3328 l 0,-1.63479 q 0,-1.41438 -0.51432,-1.85522 -0.49595,-0.44084 -1.83685,-0.44084 z"
         id="path4161"
         inkscape:connector-curvature="0" />
    </g>
  </g>
</svg>
