<?xml version="1.0" encoding="UTF-8" standalone="no"?>
<!-- Created with Inkscape (http://www.inkscape.org/) -->

<svg
   xmlns:dc="http://purl.org/dc/elements/1.1/"
   xmlns:cc="http://creativecommons.org/ns#"
   xmlns:rdf="http://www.w3.org/1999/02/22-rdf-syntax-ns#"
   xmlns:svg="http://www.w3.org/2000/svg"
   xmlns="http://www.w3.org/2000/svg"
   xmlns:xlink="http://www.w3.org/1999/xlink"
   xmlns:sodipodi="http://sodipodi.sourceforge.net/DTD/sodipodi-0.dtd"
   xmlns:inkscape="http://www.inkscape.org/namespaces/inkscape"
   width="50.806435mm"
   height="48.549976mm"
   viewBox="0 0 180.0228 172.02747"
   id="svg2"
   version="1.1"
   inkscape:version="0.91 r13725"
   sodipodi:docname="jota.svg">
  <defs
     id="defs4">
    <linearGradient
       inkscape:collect="always"
       id="linearGradient4248">
      <stop
         style="stop-color:#217821;stop-opacity:1;"
         offset="0"
         id="stop4250" />
      <stop
         style="stop-color:#37c837;stop-opacity:1"
         offset="1"
         id="stop4252" />
    </linearGradient>
    <linearGradient
       inkscape:collect="always"
       xlink:href="#linearGradient4248"
       id="linearGradient4254"
       x1="380.26144"
       y1="566.90643"
       x2="380.26144"
       y2="667.23645"
       gradientUnits="userSpaceOnUse" />
    <linearGradient
       inkscape:collect="always"
       xlink:href="#linearGradient4248"
       id="linearGradient4260"
       gradientUnits="userSpaceOnUse"
       x1="380.26144"
       y1="566.90643"
       x2="380.26144"
       y2="667.23645"
       gradientTransform="matrix(0.49205534,0,0,0.49205534,149.54856,282.00469)" />
    <linearGradient
       inkscape:collect="always"
       xlink:href="#linearGradient4248"
       id="linearGradient4266"
       gradientUnits="userSpaceOnUse"
       gradientTransform="matrix(0.39665628,0,0,0.39665628,271.96143,364.27651)"
       x1="380.26144"
       y1="566.90643"
       x2="380.26144"
       y2="667.23645" />
    <linearGradient
       inkscape:collect="always"
       xlink:href="#linearGradient4248"
       id="linearGradient4152"
       gradientUnits="userSpaceOnUse"
       x1="380.26144"
       y1="566.90643"
       x2="380.26144"
       y2="667.23645" />
    <linearGradient
       inkscape:collect="always"
       xlink:href="#linearGradient4248"
       id="linearGradient4156"
       gradientUnits="userSpaceOnUse"
       gradientTransform="matrix(0.49205534,0,0,0.49205534,149.54856,282.00469)"
       x1="380.26144"
       y1="566.90643"
       x2="380.26144"
       y2="667.23645" />
  </defs>
  <sodipodi:namedview
     id="base"
     pagecolor="#ffffff"
     bordercolor="#666666"
     borderopacity="1.0"
     inkscape:pageopacity="0.0"
     inkscape:pageshadow="2"
     inkscape:zoom="2.1425335"
     inkscape:cx="68.702881"
     inkscape:cy="92.93232"
     inkscape:document-units="px"
     inkscape:current-layer="layer1"
     showgrid="false"
     fit-margin-top="0"
     fit-margin-left="0"
     fit-margin-right="0"
     fit-margin-bottom="0"
     inkscape:window-width="1920"
     inkscape:window-height="1017"
     inkscape:window-x="-4"
     inkscape:window-y="-4"
     inkscape:window-maximized="1">
    <inkscape:grid
       type="xygrid"
       id="grid4163" />
  </sodipodi:namedview>
  <metadata
     id="metadata7">
    <rdf:RDF>
      <cc:Work
         rdf:about="">
        <dc:format>image/svg+xml</dc:format>
        <dc:type
           rdf:resource="http://purl.org/dc/dcmitype/StillImage" />
        <dc:title />
      </cc:Work>
    </rdf:RDF>
  </metadata>
  <g
     inkscape:label="Camada 1"
     inkscape:groupmode="layer"
     id="layer1"
     transform="translate(-278.61127,-505.77006)">
    <g
       transform="matrix(1.0427743,0,0,1.0427743,-15.733785,-24.345297)"
       id="g4158"
       style="font-style:normal;font-variant:normal;font-weight:500;font-stretch:normal;font-size:196.12101746px;line-height:125%;font-family:'Frank Ruehl CLM';-inkscape-font-specification:'Frank Ruehl CLM Medium';letter-spacing:0px;word-spacing:0px;fill:none;fill-opacity:1;stroke:#000000;stroke-width:3.83592105;stroke-linecap:round;stroke-linejoin:round;stroke-miterlimit:3.4000001;stroke-dasharray:none;stroke-opacity:1">
      <path
         inkscape:connector-curvature="0"
         id="path4160"
         style="fill:none;fill-opacity:1;stroke:#000000;stroke-width:3.83592105;stroke-linecap:round;stroke-linejoin:round;stroke-miterlimit:3.4000001;stroke-dasharray:none;stroke-opacity:1"
         d="m 392.05826,559.89693 0,54.09672 q 0,23.04422 -6.04707,32.35996 -8.66201,13.89191 -30.56219,13.89191 -15.03594,0 -23.04422,-7.02767 -9.47918,-7.84484 -9.47918,-20.75614 0,-8.66201 4.57616,-14.21878 4.57615,-5.72019 11.76726,-5.72019 5.39333,0 8.82544,3.26868 3.43212,3.26869 3.43212,8.49858 0,5.06646 -2.94181,8.49858 -2.94182,3.26868 -7.35454,3.26868 -2.61495,0 -6.04707,-0.81717 l -0.4903,0 q -1.96121,0 -1.96121,2.61495 0,3.59555 3.10525,7.51797 5.55676,7.1911 16.67029,7.1911 14.54564,0 19.28523,-14.21877 2.12464,-6.37393 2.12464,-25.8226 l 0,-52.62581 0,-4.73959 q 0,-5.22989 -2.45151,-6.37393 -2.28808,-1.30748 -12.09413,-1.30748 l -3.10525,0 0,-7.6814 53.60641,0 0,7.6814 -3.10525,0 q -9.96948,0 -12.42099,1.30748 -2.28808,1.14404 -2.28808,6.37393 l 0,4.73959 z" />
    </g>
    <g
       style="font-style:normal;font-variant:normal;font-weight:500;font-stretch:normal;font-size:196.12101746px;line-height:125%;font-family:'Frank Ruehl CLM';-inkscape-font-specification:'Frank Ruehl CLM Medium';letter-spacing:0px;word-spacing:0px;fill:url(#linearGradient4254);fill-opacity:1;stroke:#cccccc;stroke-width:1.91796058;stroke-linecap:round;stroke-linejoin:round;stroke-miterlimit:3.4000001;stroke-dasharray:none;stroke-opacity:1"
       id="text4240"
       transform="matrix(1.0427743,0,0,1.0427743,-16.393851,-24.67533)">
      <path
         d="m 392.05826,559.89693 0,54.09672 q 0,23.04422 -6.04707,32.35996 -8.66201,13.89191 -30.56219,13.89191 -15.03594,0 -23.04422,-7.02767 -9.47918,-7.84484 -9.47918,-20.75614 0,-8.66201 4.57616,-14.21878 4.57615,-5.72019 11.76726,-5.72019 5.39333,0 8.82544,3.26868 3.43212,3.26869 3.43212,8.49858 0,5.06646 -2.94181,8.49858 -2.94182,3.26868 -7.35454,3.26868 -2.61495,0 -6.04707,-0.81717 l -0.4903,0 q -1.96121,0 -1.96121,2.61495 0,3.59555 3.10525,7.51797 5.55676,7.1911 16.67029,7.1911 14.54564,0 19.28523,-14.21877 2.12464,-6.37393 2.12464,-25.8226 l 0,-52.62581 0,-4.73959 q 0,-5.22989 -2.45151,-6.37393 -2.28808,-1.30748 -12.09413,-1.30748 l -3.10525,0 0,-7.6814 53.60641,0 0,7.6814 -3.10525,0 q -9.96948,0 -12.42099,1.30748 -2.28808,1.14404 -2.28808,6.37393 l 0,4.73959 z"
         style="fill:url(#linearGradient4152);fill-opacity:1;stroke-width:1.91796058;stroke-linecap:round;stroke-linejoin:round;stroke-miterlimit:3.4000001;stroke-dasharray:none"
         id="path4156"
         inkscape:connector-curvature="0" />
    </g>
    <g
       transform="translate(1.6501648,4.620462)"
       id="g4162"
       style="font-style:normal;font-variant:normal;font-weight:500;font-stretch:normal;font-size:96.50239563px;line-height:125%;font-family:'Frank Ruehl CLM';-inkscape-font-specification:'Frank Ruehl CLM Medium';letter-spacing:0px;word-spacing:0px;fill:none;fill-opacity:1;stroke:#000000;stroke-width:4;stroke-linecap:round;stroke-linejoin:round;stroke-miterlimit:3.4000001;stroke-dasharray:none;stroke-opacity:1">
      <path
         inkscape:connector-curvature="0"
         id="path4164"
         style="fill:none;fill-opacity:1;stroke:#000000;stroke-width:4;stroke-linecap:round;stroke-linejoin:round;stroke-miterlimit:3.4000001;stroke-dasharray:none;stroke-opacity:1"
         d="m 342.46292,557.505 0,26.61858 q 0,11.33903 -2.97549,15.92289 -4.26219,6.83559 -15.03829,6.83559 -7.39852,0 -11.33903,-3.458 -4.66428,-3.8601 -4.66428,-10.21317 0,-4.26219 2.25172,-6.99643 2.25172,-2.81465 5.79014,-2.81465 2.65382,0 4.34261,1.60837 1.68879,1.60838 1.68879,4.18178 0,2.49297 -1.44753,4.18177 -1.44754,1.60837 -3.61884,1.60837 -1.2867,0 -2.9755,-0.40209 l -0.24125,0 q -0.96503,0 -0.96503,1.28669 0,1.76921 1.52796,3.69926 2.73423,3.53842 8.2027,3.53842 7.15726,0 9.48941,-6.99642 1.04544,-3.13633 1.04544,-12.70615 l 0,-25.89481 0,-2.33214 q 0,-2.5734 -1.20628,-3.13633 -1.12586,-0.64335 -5.95098,-0.64335 l -1.52796,0 0,-3.77967 26.37732,0 0,3.77967 -1.52795,0 q -4.90554,0 -6.11182,0.64335 -1.12586,0.56293 -1.12586,3.13633 l 0,2.33214 z" />
    </g>
    <g
       style="font-style:normal;font-variant:normal;font-weight:500;font-stretch:normal;font-size:96.50239563px;line-height:125%;font-family:'Frank Ruehl CLM';-inkscape-font-specification:'Frank Ruehl CLM Medium';letter-spacing:0px;word-spacing:0px;fill:url(#linearGradient4260);fill-opacity:1;stroke:#cccccc;stroke-width:2;stroke-linecap:round;stroke-linejoin:round;stroke-miterlimit:3.4000001;stroke-dasharray:none;stroke-opacity:1"
       id="text4256"
       transform="translate(0.99009901,4.290429)">
      <path
         d="m 342.46292,557.505 0,26.61858 q 0,11.33903 -2.97549,15.92289 -4.26219,6.83559 -15.03829,6.83559 -7.39852,0 -11.33903,-3.458 -4.66428,-3.8601 -4.66428,-10.21317 0,-4.26219 2.25172,-6.99643 2.25172,-2.81465 5.79014,-2.81465 2.65382,0 4.34261,1.60837 1.68879,1.60838 1.68879,4.18178 0,2.49297 -1.44753,4.18177 -1.44754,1.60837 -3.61884,1.60837 -1.2867,0 -2.9755,-0.40209 l -0.24125,0 q -0.96503,0 -0.96503,1.28669 0,1.76921 1.52796,3.69926 2.73423,3.53842 8.2027,3.53842 7.15726,0 9.48941,-6.99642 1.04544,-3.13633 1.04544,-12.70615 l 0,-25.89481 0,-2.33214 q 0,-2.5734 -1.20628,-3.13633 -1.12586,-0.64335 -5.95098,-0.64335 l -1.52796,0 0,-3.77967 26.37732,0 0,3.77967 -1.52795,0 q -4.90554,0 -6.11182,0.64335 -1.12586,0.56293 -1.12586,3.13633 l 0,2.33214 z"
         style="fill:url(#linearGradient4156);fill-opacity:1;stroke-width:2;stroke-linecap:round;stroke-linejoin:round;stroke-miterlimit:3.4000001;stroke-dasharray:none"
         id="path4159"
         inkscape:connector-curvature="0" />
    </g>
    <g
       id="g4166"
       style="font-style:normal;font-variant:normal;font-weight:500;font-stretch:normal;font-size:77.79263306px;line-height:125%;font-family:'Frank Ruehl CLM';-inkscape-font-specification:'Frank Ruehl CLM Medium';letter-spacing:0px;word-spacing:0px;fill:none;fill-opacity:1;stroke:#000000;stroke-width:4;stroke-linecap:round;stroke-linejoin:round;stroke-miterlimit:3.4000001;stroke-dasharray:none;stroke-opacity:1"
       transform="translate(0.66006578,0.33003299)">
      <path
         id="path4168"
         style="fill:none;fill-opacity:1;stroke:#000000;stroke-width:4;stroke-linecap:round;stroke-linejoin:round;stroke-miterlimit:3.4000001;stroke-dasharray:none;stroke-opacity:1"
         d="m 427.47379,586.36315 0,21.4578 q 0,9.14064 -2.3986,12.83579 -3.43585,5.51031 -12.12269,5.51031 -5.9641,0 -9.14063,-2.78757 -3.75998,-3.11171 -3.75998,-8.23305 0,-3.43585 1.81516,-5.63997 1.81516,-2.26895 4.66756,-2.26895 2.1393,0 3.50067,1.29654 1.36137,1.29655 1.36137,3.37102 0,2.00964 -1.16689,3.37101 -1.16689,1.29654 -2.91723,1.29654 -1.03723,0 -2.3986,-0.32413 l -0.19448,0 q -0.77793,0 -0.77793,1.03723 0,1.4262 1.23172,2.98205 2.20412,2.8524 6.61237,2.8524 5.76962,0 7.64961,-5.63996 0.84275,-2.52827 0.84275,-10.2427 l 0,-20.87436 0,-1.87999 q 0,-2.07447 -0.9724,-2.52826 -0.90759,-0.51861 -4.79722,-0.51861 l -1.23171,0 0,-3.04688 21.26332,0 0,3.04688 -1.23172,0 q -3.95446,0 -4.92687,0.51861 -0.90758,0.45379 -0.90758,2.52826 l 0,1.87999 z"
         inkscape:connector-curvature="0" />
    </g>
    <g
       style="font-style:normal;font-variant:normal;font-weight:500;font-stretch:normal;font-size:77.79263306px;line-height:125%;font-family:'Frank Ruehl CLM';-inkscape-font-specification:'Frank Ruehl CLM Medium';letter-spacing:0px;word-spacing:0px;fill:url(#linearGradient4266);fill-opacity:1;stroke:#cccccc;stroke-width:2;stroke-linecap:round;stroke-linejoin:round;stroke-miterlimit:3.4000001;stroke-dasharray:none;stroke-opacity:1"
       id="text4262">
      <path
         d="m 427.47379,586.36315 0,21.4578 q 0,9.14064 -2.3986,12.83579 -3.43585,5.51031 -12.12269,5.51031 -5.9641,0 -9.14063,-2.78757 -3.75998,-3.11171 -3.75998,-8.23305 0,-3.43585 1.81516,-5.63997 1.81516,-2.26895 4.66756,-2.26895 2.1393,0 3.50067,1.29654 1.36137,1.29655 1.36137,3.37102 0,2.00964 -1.16689,3.37101 -1.16689,1.29654 -2.91723,1.29654 -1.03723,0 -2.3986,-0.32413 l -0.19448,0 q -0.77793,0 -0.77793,1.03723 0,1.4262 1.23172,2.98205 2.20412,2.8524 6.61237,2.8524 5.76962,0 7.64961,-5.63996 0.84275,-2.52827 0.84275,-10.2427 l 0,-20.87436 0,-1.87999 q 0,-2.07447 -0.9724,-2.52826 -0.90759,-0.51861 -4.79722,-0.51861 l -1.23171,0 0,-3.04688 21.26332,0 0,3.04688 -1.23172,0 q -3.95446,0 -4.92687,0.51861 -0.90758,0.45379 -0.90758,2.52826 l 0,1.87999 z"
         style="fill:url(#linearGradient4266);fill-opacity:1;stroke-width:2;stroke-linecap:round;stroke-linejoin:round;stroke-miterlimit:3.4000001;stroke-dasharray:none"
         id="path4153" />
    </g>
  </g>
</svg>
