<?xml version="1.0" encoding="UTF-8" standalone="no"?>
<!-- Created with Inkscape (http://www.inkscape.org/) -->

<svg
   xmlns:dc="http://purl.org/dc/elements/1.1/"
   xmlns:cc="http://creativecommons.org/ns#"
   xmlns:rdf="http://www.w3.org/1999/02/22-rdf-syntax-ns#"
   xmlns:svg="http://www.w3.org/2000/svg"
   xmlns="http://www.w3.org/2000/svg"
   xmlns:xlink="http://www.w3.org/1999/xlink"
   xmlns:sodipodi="http://sodipodi.sourceforge.net/DTD/sodipodi-0.dtd"
   xmlns:inkscape="http://www.inkscape.org/namespaces/inkscape"
   width="50.806435mm"
   height="48.549976mm"
   viewBox="0 0 180.0228 172.02747"
   id="svg2"
   version="1.1"
   inkscape:version="0.91 r13725"
   sodipodi:docname="king.svg">
  <defs
     id="defs4">
    <linearGradient
       inkscape:collect="always"
       id="linearGradient4172">
      <stop
         style="stop-color:#ffaacc;stop-opacity:1"
         offset="0"
         id="stop4174" />
      <stop
         style="stop-color:#800033;stop-opacity:1"
         offset="1"
         id="stop4176" />
    </linearGradient>
    <linearGradient
       inkscape:collect="always"
       id="linearGradient4248">
      <stop
         style="stop-color:#800033;stop-opacity:1"
         offset="0"
         id="stop4250" />
      <stop
         style="stop-color:#ff80b2;stop-opacity:1"
         offset="1"
         id="stop4252" />
    </linearGradient>
    <linearGradient
       inkscape:collect="always"
       xlink:href="#linearGradient4248"
       id="linearGradient4254"
       x1="380.26144"
       y1="566.90643"
       x2="380.26144"
       y2="667.23645"
       gradientUnits="userSpaceOnUse"
       gradientTransform="matrix(0.806065,0,0,0.806065,55.207266,118.21299)" />
    <linearGradient
       inkscape:collect="always"
       xlink:href="#linearGradient4248"
       id="linearGradient4156"
       gradientUnits="userSpaceOnUse"
       gradientTransform="matrix(0.3439564,0,0,0.3439564,281.89721,389.21503)"
       x1="380.26144"
       y1="566.90643"
       x2="380.26144"
       y2="667.23645" />
    <linearGradient
       inkscape:collect="always"
       xlink:href="#linearGradient4172"
       id="linearGradient4178"
       x1="371.02524"
       y1="647.69299"
       x2="371.02524"
       y2="564.38037"
       gradientUnits="userSpaceOnUse" />
  </defs>
  <sodipodi:namedview
     id="base"
     pagecolor="#ffffff"
     bordercolor="#666666"
     borderopacity="1.0"
     inkscape:pageopacity="0.0"
     inkscape:pageshadow="2"
     inkscape:zoom="1.515"
     inkscape:cx="57.522001"
     inkscape:cy="78.830696"
     inkscape:document-units="px"
     inkscape:current-layer="layer1"
     showgrid="false"
     fit-margin-top="0"
     fit-margin-left="0"
     fit-margin-right="0"
     fit-margin-bottom="0"
     inkscape:window-width="1920"
     inkscape:window-height="1017"
     inkscape:window-x="-4"
     inkscape:window-y="-4"
     inkscape:window-maximized="1">
    <inkscape:grid
       type="xygrid"
       id="grid4163" />
  </sodipodi:namedview>
  <metadata
     id="metadata7">
    <rdf:RDF>
      <cc:Work
         rdf:about="">
        <dc:format>image/svg+xml</dc:format>
        <dc:type
           rdf:resource="http://purl.org/dc/dcmitype/StillImage" />
        <dc:title />
      </cc:Work>
    </rdf:RDF>
  </metadata>
  <g
     inkscape:label="Camada 1"
     inkscape:groupmode="layer"
     id="layer1"
     transform="translate(-278.61127,-505.77006)">
    <g
       style="font-style:normal;font-variant:normal;font-weight:500;font-stretch:normal;font-size:158.08628845px;line-height:125%;font-family:'Frank Ruehl CLM';-inkscape-font-specification:'Frank Ruehl CLM Medium';letter-spacing:0px;word-spacing:0px;fill:url(#linearGradient4254);fill-opacity:1;stroke:#cccccc;stroke-width:2;stroke-linecap:round;stroke-linejoin:round;stroke-miterlimit:3.4000001;stroke-dasharray:none;stroke-opacity:1"
       id="text4240" />
    <g
       style="font-style:normal;font-variant:normal;font-weight:500;font-stretch:normal;font-size:67.45707703px;line-height:125%;font-family:'Frank Ruehl CLM';-inkscape-font-specification:'Frank Ruehl CLM Medium';letter-spacing:0px;word-spacing:0px;fill:url(#linearGradient4156);fill-opacity:1;stroke:#cccccc;stroke-width:1;stroke-linecap:round;stroke-linejoin:round;stroke-miterlimit:3.4000001;stroke-dasharray:none;stroke-opacity:1"
       id="text4152" />
    <g
       transform="matrix(0.97639935,0,0,0.97639935,7.1205039,15.327154)"
       id="g4153"
       style="font-style:normal;font-weight:normal;font-size:86.02354431px;line-height:125%;font-family:sans-serif;letter-spacing:0px;word-spacing:0px;fill:none;fill-opacity:1;stroke:#000000;stroke-width:4.09668442;stroke-linecap:round;stroke-linejoin:round;stroke-miterlimit:3.4000001;stroke-dasharray:none;stroke-opacity:1">
      <path
         inkscape:connector-curvature="0"
         d="m 344.69429,541.92652 q -3.99035,-0.084 -4.4944,-4.07436 0,-1.1761 0.58806,-2.22619 0.63005,-1.0921 1.76415,-1.68015 1.1341,-0.58805 2.35221,-0.58805 1.1761,0 2.3102,0.58805 1.1341,0.58805 1.72215,1.68015 0.58805,1.05009 0.58805,2.22619 -0.16801,2.68824 -2.56222,3.61232 l 10.03888,21.25386 -2.18419,-29.48658 q -3.48631,0 -4.24238,-3.90635 0,-1.1761 0.58806,-2.22619 0.63005,-1.05009 1.72215,-1.63815 1.1341,-0.58805 2.43621,-0.58805 1.1761,0 2.2682,0.58805 1.1341,0.58806 1.72215,1.63815 0.63006,1.05009 0.63006,2.22619 -0.084,1.89017 -2.01618,3.31829 l 7.9387,31.41876 1.80615,-34.44302 q -2.81424,-1.26011 -2.89825,-3.27629 0,-1.1761 0.63005,-2.2682 0.63006,-1.09209 1.72216,-1.63814 1.1341,-0.54605 2.26819,-0.54605 1.21811,0 2.31021,0.54605 1.1341,0.54605 1.76415,1.63814 0.63006,1.0921 0.63006,2.2682 -0.12601,2.2682 -2.94026,3.27629 l 1.59614,34.52703 7.77068,-31.08273 q -1.93217,-1.97417 -1.93217,-3.73833 0,-1.1341 0.58805,-2.18419 0.63006,-1.09209 1.76416,-1.68015 1.1341,-0.58805 2.2682,-0.58805 1.26011,0 2.39421,0.58805 1.1341,0.58806 1.72215,1.68015 0.63005,1.05009 0.63005,2.18419 -0.46204,3.57032 -4.07435,4.24237 l -3.86434,29.15056 10.79494,-21.6319 q -1.80616,-1.42812 -1.80616,-3.23428 0,-1.1761 0.58806,-2.22619 0.63005,-1.0921 1.72215,-1.63815 1.1341,-0.58805 2.3102,-0.58805 1.26011,0 2.35221,0.58805 1.1341,0.54605 1.72215,1.63815 0.63005,1.05009 0.63005,2.22619 -0.54605,3.94835 -4.70441,3.94835 l -6.72059,19.4477 0,23.48006 -36.16517,0 0,-23.48006 -6.04853,-19.32169 z m 39.81949,27.84844 0,-3.27629 -30.53668,0 0,3.27629 30.53668,0 z m 0,12.5171 0,-3.31829 -30.53668,0 0,3.31829 30.53668,0 z m 22.22825,14.79335 13.77249,-13.8287 q 2.7545,-2.75449 2.7545,-4.04742 0,-1.68643 -3.65393,-1.68643 l -1.40535,0 0,-2.64207 17.31398,0 0,2.64207 q -5.28414,0 -9.5002,4.49714 l -8.37592,8.37592 13.60384,19.61877 q 1.23671,1.79885 2.19235,2.30478 1.01186,0.50593 3.31664,0.50593 l 1.06807,0 0,2.64207 -19.22526,0 0,-2.64207 1.74264,0 q 3.82257,0 3.82257,-1.29293 0,-0.67457 -1.12429,-2.361 l -9.78127,-14.33462 -6.52086,6.57706 0,7.13921 0,1.63021 q 0,1.79886 0.787,2.24857 0.84322,0.3935 4.27229,0.3935 l 1.06807,0 0,2.64207 -18.49449,0 0,-2.64207 1.01186,0 q 3.42907,0 4.21607,-0.3935 0.84321,-0.44971 0.84321,-2.24857 l 0,-1.63021 0,-26.75798 0,-1.63021 q 0,-1.79885 -0.84321,-2.19235 -0.787,-0.44972 -4.21607,-0.44972 l -1.01186,0 0,-2.64207 18.49449,0 0,2.64207 -1.06807,0 q -3.42907,0 -4.27229,0.44972 -0.787,0.3935 -0.787,2.19235 l 0,1.63021 0,15.29027 z m -65.67846,19.47154 17.78471,-17.12602 q 3.02999,-3.02998 3.02999,-5.1378 0,-2.50303 -6.19172,-2.50303 l -4.08389,0 0,-4.74259 34.64724,0 0,4.74259 q -6.71867,0.79043 -11.72473,3.29346 -4.87433,2.50303 -10.53909,8.16779 l -5.92823,5.7965 18.70687,25.55728 q 4.0839,5.13781 6.98215,6.85041 2.89825,1.7126 8.43127,2.23955 l 0,4.74259 -34.77899,0 0,-4.74259 2.50304,0 q 5.79649,0 5.79649,-2.23955 0,-0.79043 -0.92217,-2.3713 l -15.67689,-22.00034 -8.03605,7.64084 0,7.5091 0,5.26954 q 0,3.95216 1.7126,5.13781 1.84434,1.0539 8.29953,1.0539 l 0.52696,0 0,4.74259 -33.32986,0 0,-4.74259 0.52695,0 q 6.32345,0 8.03606,-1.0539 1.84434,-1.18565 1.84434,-5.13781 l 0,-5.26954 0,-67.18667 q 0,-4.21564 -1.05391,-5.40129 -0.92217,-1.18564 -4.61085,-1.18564 l -6.32345,0 0,-5.66476 24.37163,-1.44913 0,65.2106 z"
         style="fill:none;fill-opacity:1;stroke:#000000;stroke-width:4.09668442;stroke-linecap:round;stroke-linejoin:round;stroke-miterlimit:3.4000001;stroke-dasharray:none;stroke-opacity:1"
         id="path4155" />
    </g>
    <g
       style="font-style:normal;font-weight:normal;font-size:86.02354431px;line-height:125%;font-family:sans-serif;letter-spacing:0px;word-spacing:0px;fill:#000000;fill-opacity:1;stroke:#e3dbe2;stroke-width:2.04834221;stroke-linecap:round;stroke-linejoin:round;stroke-miterlimit:3.4000001;stroke-dasharray:none;stroke-opacity:1"
       id="text4158"
       transform="matrix(0.97639935,0,0,0.97639935,7.4505365,15.327154)">
      <path
         id="path4169"
         style="fill:url(#linearGradient4178);fill-opacity:1;stroke:#e3dbe2;stroke-width:2.04834221;stroke-miterlimit:3.4000001;stroke-dasharray:none;stroke-opacity:1;stroke-linejoin:round;stroke-linecap:round"
         d="m 344.69429,541.92652 q -3.99035,-0.084 -4.4944,-4.07436 0,-1.1761 0.58806,-2.22619 0.63005,-1.0921 1.76415,-1.68015 1.1341,-0.58805 2.35221,-0.58805 1.1761,0 2.3102,0.58805 1.1341,0.58805 1.72215,1.68015 0.58805,1.05009 0.58805,2.22619 -0.16801,2.68824 -2.56222,3.61232 l 10.03888,21.25386 -2.18419,-29.48658 q -3.48631,0 -4.24238,-3.90635 0,-1.1761 0.58806,-2.22619 0.63005,-1.05009 1.72215,-1.63815 1.1341,-0.58805 2.43621,-0.58805 1.1761,0 2.2682,0.58805 1.1341,0.58806 1.72215,1.63815 0.63006,1.05009 0.63006,2.22619 -0.084,1.89017 -2.01618,3.31829 l 7.9387,31.41876 1.80615,-34.44302 q -2.81424,-1.26011 -2.89825,-3.27629 0,-1.1761 0.63005,-2.2682 0.63006,-1.09209 1.72216,-1.63814 1.1341,-0.54605 2.26819,-0.54605 1.21811,0 2.31021,0.54605 1.1341,0.54605 1.76415,1.63814 0.63006,1.0921 0.63006,2.2682 -0.12601,2.2682 -2.94026,3.27629 l 1.59614,34.52703 7.77068,-31.08273 q -1.93217,-1.97417 -1.93217,-3.73833 0,-1.1341 0.58805,-2.18419 0.63006,-1.09209 1.76416,-1.68015 1.1341,-0.58805 2.2682,-0.58805 1.26011,0 2.39421,0.58805 1.1341,0.58806 1.72215,1.68015 0.63005,1.05009 0.63005,2.18419 -0.46204,3.57032 -4.07435,4.24237 l -3.86434,29.15056 10.79494,-21.6319 q -1.80616,-1.42812 -1.80616,-3.23428 0,-1.1761 0.58806,-2.22619 0.63005,-1.0921 1.72215,-1.63815 1.1341,-0.58805 2.3102,-0.58805 1.26011,0 2.35221,0.58805 1.1341,0.54605 1.72215,1.63815 0.63005,1.05009 0.63005,2.22619 -0.54605,3.94835 -4.70441,3.94835 l -6.72059,19.4477 0,23.48006 -36.16517,0 0,-23.48006 -6.04853,-19.32169 z m 39.81949,27.84844 0,-3.27629 -30.53668,0 0,3.27629 30.53668,0 z m 0,12.5171 0,-3.31829 -30.53668,0 0,3.31829 30.53668,0 z m 22.22825,14.79335 13.77249,-13.8287 q 2.7545,-2.75449 2.7545,-4.04742 0,-1.68643 -3.65393,-1.68643 l -1.40535,0 0,-2.64207 17.31398,0 0,2.64207 q -5.28414,0 -9.5002,4.49714 l -8.37592,8.37592 13.60384,19.61877 q 1.23671,1.79885 2.19235,2.30478 1.01186,0.50593 3.31664,0.50593 l 1.06807,0 0,2.64207 -19.22526,0 0,-2.64207 1.74264,0 q 3.82257,0 3.82257,-1.29293 0,-0.67457 -1.12429,-2.361 l -9.78127,-14.33462 -6.52086,6.57706 0,7.13921 0,1.63021 q 0,1.79886 0.787,2.24857 0.84322,0.3935 4.27229,0.3935 l 1.06807,0 0,2.64207 -18.49449,0 0,-2.64207 1.01186,0 q 3.42907,0 4.21607,-0.3935 0.84321,-0.44971 0.84321,-2.24857 l 0,-1.63021 0,-26.75798 0,-1.63021 q 0,-1.79885 -0.84321,-2.19235 -0.787,-0.44972 -4.21607,-0.44972 l -1.01186,0 0,-2.64207 18.49449,0 0,2.64207 -1.06807,0 q -3.42907,0 -4.27229,0.44972 -0.787,0.3935 -0.787,2.19235 l 0,1.63021 0,15.29027 z m -65.67846,19.47154 17.78471,-17.12602 q 3.02999,-3.02998 3.02999,-5.1378 0,-2.50303 -6.19172,-2.50303 l -4.08389,0 0,-4.74259 34.64724,0 0,4.74259 q -6.71867,0.79043 -11.72473,3.29346 -4.87433,2.50303 -10.53909,8.16779 l -5.92823,5.7965 18.70687,25.55728 q 4.0839,5.13781 6.98215,6.85041 2.89825,1.7126 8.43127,2.23955 l 0,4.74259 -34.77899,0 0,-4.74259 2.50304,0 q 5.79649,0 5.79649,-2.23955 0,-0.79043 -0.92217,-2.3713 l -15.67689,-22.00034 -8.03605,7.64084 0,7.5091 0,5.26954 q 0,3.95216 1.7126,5.13781 1.84434,1.0539 8.29953,1.0539 l 0.52696,0 0,4.74259 -33.32986,0 0,-4.74259 0.52695,0 q 6.32345,0 8.03606,-1.0539 1.84434,-1.18565 1.84434,-5.13781 l 0,-5.26954 0,-67.18667 q 0,-4.21564 -1.05391,-5.40129 -0.92217,-1.18564 -4.61085,-1.18564 l -6.32345,0 0,-5.66476 24.37163,-1.44913 0,65.2106 z"
         inkscape:connector-curvature="0" />
    </g>
  </g>
</svg>
