<?xml version="1.0" encoding="UTF-8" standalone="no"?>
<!-- Created with Inkscape (http://www.inkscape.org/) -->

<svg
   xmlns:dc="http://purl.org/dc/elements/1.1/"
   xmlns:cc="http://creativecommons.org/ns#"
   xmlns:rdf="http://www.w3.org/1999/02/22-rdf-syntax-ns#"
   xmlns:svg="http://www.w3.org/2000/svg"
   xmlns="http://www.w3.org/2000/svg"
   xmlns:xlink="http://www.w3.org/1999/xlink"
   xmlns:sodipodi="http://sodipodi.sourceforge.net/DTD/sodipodi-0.dtd"
   xmlns:inkscape="http://www.inkscape.org/namespaces/inkscape"
   width="50.806435mm"
   height="48.549976mm"
   viewBox="0 0 180.0228 172.02747"
   id="svg2"
   version="1.1"
   inkscape:version="0.91 r13725"
   sodipodi:docname="seven.svg">
  <defs
     id="defs4">
    <linearGradient
       inkscape:collect="always"
       id="linearGradient4195">
      <stop
         style="stop-color:#000080;stop-opacity:1"
         offset="0"
         id="stop4197" />
      <stop
         style="stop-color:#0000ff;stop-opacity:1"
         offset="1"
         id="stop4199" />
    </linearGradient>
    <linearGradient
       inkscape:collect="always"
       xlink:href="#linearGradient4195"
       id="linearGradient4209"
       gradientUnits="userSpaceOnUse"
       x1="366.82458"
       y1="641.39203"
       x2="366.82458"
       y2="571.38147"
       gradientTransform="translate(4.2590156,0)" />
    <linearGradient
       inkscape:collect="always"
       xlink:href="#linearGradient4195"
       id="linearGradient4211"
       gradientUnits="userSpaceOnUse"
       x1="366.82458"
       y1="641.39203"
       x2="366.82458"
       y2="571.38147" />
    <linearGradient
       inkscape:collect="always"
       xlink:href="#linearGradient4195"
       id="linearGradient4159"
       gradientUnits="userSpaceOnUse"
       x1="366.82458"
       y1="641.39203"
       x2="366.82458"
       y2="571.38147" />
    <linearGradient
       inkscape:collect="always"
       xlink:href="#linearGradient4195"
       id="linearGradient4161"
       gradientUnits="userSpaceOnUse"
       x1="366.82458"
       y1="641.39203"
       x2="366.82458"
       y2="571.38147" />
    <linearGradient
       inkscape:collect="always"
       xlink:href="#linearGradient4195"
       id="linearGradient4167"
       gradientUnits="userSpaceOnUse"
       x1="366.82458"
       y1="641.39203"
       x2="366.82458"
       y2="571.38147" />
    <linearGradient
       inkscape:collect="always"
       xlink:href="#linearGradient4195"
       id="linearGradient4169"
       gradientUnits="userSpaceOnUse"
       x1="366.82458"
       y1="641.39203"
       x2="366.82458"
       y2="571.38147" />
  </defs>
  <sodipodi:namedview
     id="base"
     pagecolor="#ffffff"
     bordercolor="#666666"
     borderopacity="1.0"
     inkscape:pageopacity="0.0"
     inkscape:pageshadow="2"
     inkscape:zoom="0.7575"
     inkscape:cx="53.738639"
     inkscape:cy="75.050789"
     inkscape:document-units="px"
     inkscape:current-layer="layer1"
     showgrid="false"
     fit-margin-top="0"
     fit-margin-left="0"
     fit-margin-right="0"
     fit-margin-bottom="0"
     inkscape:window-width="1920"
     inkscape:window-height="1017"
     inkscape:window-x="-4"
     inkscape:window-y="-4"
     inkscape:window-maximized="1">
    <inkscape:grid
       type="xygrid"
       id="grid4163" />
  </sodipodi:namedview>
  <metadata
     id="metadata7">
    <rdf:RDF>
      <cc:Work
         rdf:about="">
        <dc:format>image/svg+xml</dc:format>
        <dc:type
           rdf:resource="http://purl.org/dc/dcmitype/StillImage" />
        <dc:title />
      </cc:Work>
    </rdf:RDF>
  </metadata>
  <g
     inkscape:label="Camada 1"
     inkscape:groupmode="layer"
     id="layer1"
     transform="translate(-278.61127,-505.77006)">
    <g
       style="font-style:normal;font-variant:normal;font-weight:normal;font-stretch:normal;font-size:180px;line-height:125%;font-family:KodchiangUPC;-inkscape-font-specification:KodchiangUPC;letter-spacing:0px;word-spacing:0px;fill:none;fill-opacity:1;stroke:#000000;stroke-width:6.84381294;stroke-linecap:butt;stroke-linejoin:miter;stroke-miterlimit:4;stroke-dasharray:none;stroke-opacity:1"
       id="g4149"
       transform="matrix(0.87670429,0,0,0.87670429,1.9759946,74.570477)">
      <path
         sodipodi:nodetypes="ccccscccccccccccccc"
         d="m 349.57869,589.99725 0,-18.7207 45,0 0,14.37012 c -1.61133,2.66601 -3.86719,6.79687 -6.76758,12.39258 -2.90039,5.5957 -5.1416,11.07421 -6.72363,16.43554 -2.28515,7.55859 -3.42773,13.12619 -3.42773,23.08713 l 6.81152,0 0,5.69705 -26.45508,0 0,-5.69705 5.93262,0 c 0,-3.48633 0.61523,-4.67404 1.8457,-9.94748 1.25977,-5.30273 3.10547,-10.22461 5.53711,-14.76562 5.24414,-9.63867 8.72337,-18.94043 17.27806,-27.90528 l 0,-2.90039 -32.29834,0 0,7.9541 z"
         style="fill:none;fill-opacity:1;stroke:#000000;stroke-width:6.84381294;stroke-miterlimit:4;stroke-dasharray:none;stroke-opacity:1"
         id="path4151"
         inkscape:connector-curvature="0" />
    </g>
    <g
       transform="matrix(0.87670429,0,0,0.87670429,1.6459619,74.570477)"
       id="g4205"
       style="font-style:normal;font-variant:normal;font-weight:normal;font-stretch:normal;font-size:180px;line-height:125%;font-family:KodchiangUPC;-inkscape-font-specification:KodchiangUPC;letter-spacing:0px;word-spacing:0px;fill:url(#linearGradient4211);fill-opacity:1;stroke:#cccccc;stroke-width:2.28127098;stroke-linecap:butt;stroke-linejoin:miter;stroke-miterlimit:4;stroke-dasharray:none;stroke-opacity:1">
      <path
         inkscape:connector-curvature="0"
         id="path4207"
         style="fill:url(#linearGradient4209);fill-opacity:1;stroke:#cccccc;stroke-width:2.28127098;stroke-miterlimit:4;stroke-dasharray:none"
         d="m 349.57869,589.99725 0,-18.7207 45,0 0,14.37012 c -1.61133,2.66601 -3.86719,6.79687 -6.76758,12.39258 -2.90039,5.5957 -5.1416,11.07421 -6.72363,16.43554 -2.28515,7.55859 -3.42773,13.12619 -3.42773,23.08713 l 6.81152,0 0,5.69705 -26.45508,0 0,-5.69705 5.93262,0 c 0,-3.48633 0.61523,-4.67404 1.8457,-9.94748 1.25977,-5.30273 3.10547,-10.22461 5.53711,-14.76562 5.24414,-9.63867 8.72337,-18.94043 17.27806,-27.90528 l 0,-2.90039 -32.29834,0 0,7.9541 z"
         sodipodi:nodetypes="ccccscccccccccccccc" />
    </g>
    <g
       transform="matrix(0.75806229,0,0,0.75806229,139.2776,150.81857)"
       id="g4153"
       style="font-style:normal;font-variant:normal;font-weight:normal;font-stretch:normal;font-size:180px;line-height:125%;font-family:KodchiangUPC;-inkscape-font-specification:KodchiangUPC;letter-spacing:0px;word-spacing:0px;fill:none;fill-opacity:1;stroke:#000000;stroke-width:7.91491699;stroke-linecap:butt;stroke-linejoin:miter;stroke-miterlimit:4;stroke-dasharray:none;stroke-opacity:1">
      <path
         inkscape:connector-curvature="0"
         id="path4155"
         style="fill:none;fill-opacity:1;stroke:#000000;stroke-width:7.91491699;stroke-miterlimit:4;stroke-dasharray:none;stroke-opacity:1"
         d="m 345.31967,589.99725 0,-18.7207 45,0 0,14.37012 c -1.61133,2.66601 -3.86719,6.79687 -6.76758,12.39258 -2.90039,5.5957 -5.1416,11.07421 -6.72363,16.43554 -2.28515,7.55859 -3.42773,13.12619 -3.42773,23.08713 l 6.81152,0 0,5.69705 -26.45508,0 0,-5.69705 5.93262,0 c 0,-3.48633 0.61523,-4.67404 1.8457,-9.94748 1.25977,-5.30273 3.10547,-10.22461 5.53711,-14.76562 5.24414,-9.63867 8.72337,-18.94043 17.27806,-27.90528 l 0,-2.90039 -32.29834,0 0,7.9541 z"
         sodipodi:nodetypes="ccccscccccccccccccc" />
    </g>
    <g
       style="font-style:normal;font-variant:normal;font-weight:normal;font-stretch:normal;font-size:180px;line-height:125%;font-family:KodchiangUPC;-inkscape-font-specification:KodchiangUPC;letter-spacing:0px;word-spacing:0px;fill:url(#linearGradient4161);fill-opacity:1;stroke:#cccccc;stroke-width:2.63830562;stroke-linecap:butt;stroke-linejoin:miter;stroke-miterlimit:4;stroke-dasharray:none;stroke-opacity:1"
       id="g4155"
       transform="matrix(0.75806229,0,0,0.75806229,138.94757,150.81857)">
      <path
         sodipodi:nodetypes="ccccscccccccccccccc"
         d="m 345.31967,589.99725 0,-18.7207 45,0 0,14.37012 c -1.61133,2.66601 -3.86719,6.79687 -6.76758,12.39258 -2.90039,5.5957 -5.1416,11.07421 -6.72363,16.43554 -2.28515,7.55859 -3.42773,13.12619 -3.42773,23.08713 l 6.81152,0 0,5.69705 -26.45508,0 0,-5.69705 5.93262,0 c 0,-3.48633 0.61523,-4.67404 1.8457,-9.94748 1.25977,-5.30273 3.10547,-10.22461 5.53711,-14.76562 5.24414,-9.63867 8.72337,-18.94043 17.27806,-27.90528 l 0,-2.90039 -32.29834,0 0,7.9541 z"
         style="fill:url(#linearGradient4159);fill-opacity:1;stroke:#cccccc;stroke-width:2.63830562;stroke-miterlimit:4;stroke-dasharray:none"
         id="path4157"
         inkscape:connector-curvature="0" />
    </g>
    <g
       transform="matrix(1.6882757,0,0,1.6882757,-251.79866,-427.27632)"
       id="g4157"
       style="font-style:normal;font-variant:normal;font-weight:normal;font-stretch:normal;font-size:180px;line-height:125%;font-family:KodchiangUPC;-inkscape-font-specification:KodchiangUPC;letter-spacing:0px;word-spacing:0px;fill:none;fill-opacity:1;stroke:#000000;stroke-width:3.55392194;stroke-linecap:butt;stroke-linejoin:miter;stroke-miterlimit:4;stroke-dasharray:none;stroke-opacity:1">
      <path
         inkscape:connector-curvature="0"
         id="path4159"
         style="fill:none;fill-opacity:1;stroke:#000000;stroke-width:3.55392194;stroke-miterlimit:4;stroke-dasharray:none;stroke-opacity:1"
         d="m 345.31967,589.99725 0,-18.7207 45,0 0,14.37012 c -1.61133,2.66601 -3.86719,6.79687 -6.76758,12.39258 -2.90039,5.5957 -5.1416,11.07421 -6.72363,16.43554 -2.28515,7.55859 -3.42773,13.12619 -3.42773,23.08713 l 6.81152,0 0,5.69705 -26.45508,0 0,-5.69705 5.93262,0 c 0,-3.48633 0.61523,-4.67404 1.8457,-9.94748 1.25977,-5.30273 3.10547,-10.22461 5.53711,-14.76562 5.24414,-9.63867 8.72337,-18.94043 17.27806,-27.90528 l 0,-2.90039 -32.29834,0 0,7.9541 z"
         sodipodi:nodetypes="ccccscccccccccccccc" />
    </g>
    <g
       style="font-style:normal;font-variant:normal;font-weight:normal;font-stretch:normal;font-size:180px;line-height:125%;font-family:KodchiangUPC;-inkscape-font-specification:KodchiangUPC;letter-spacing:0px;word-spacing:0px;fill:url(#linearGradient4169);fill-opacity:1;stroke:#cccccc;stroke-width:2.36928127;stroke-linecap:butt;stroke-linejoin:miter;stroke-miterlimit:4;stroke-dasharray:none;stroke-opacity:1"
       id="g4163"
       transform="matrix(1.6882757,0,0,1.6882757,-252.12869,-427.27632)">
      <path
         sodipodi:nodetypes="ccccscccccccccccccc"
         d="m 345.31967,589.99725 0,-18.7207 45,0 0,14.37012 c -1.61133,2.66601 -3.86719,6.79687 -6.76758,12.39258 -2.90039,5.5957 -5.1416,11.07421 -6.72363,16.43554 -2.28515,7.55859 -3.42773,13.12619 -3.42773,23.08713 l 6.81152,0 0,5.69705 -26.45508,0 0,-5.69705 5.93262,0 c 0,-3.48633 0.61523,-4.67404 1.8457,-9.94748 1.25977,-5.30273 3.10547,-10.22461 5.53711,-14.76562 5.24414,-9.63867 8.72337,-18.94043 17.27806,-27.90528 l 0,-2.90039 -32.29834,0 0,7.9541 z"
         style="fill:url(#linearGradient4167);fill-opacity:1;stroke:#cccccc;stroke-width:2.36928127;stroke-miterlimit:4;stroke-dasharray:none"
         id="path4165"
         inkscape:connector-curvature="0" />
    </g>
  </g>
</svg>
